PathFileType	4	(X/Y/Z)	./resultDataOpenSim/trcMotMarkerGrf/sub09/qtm-13-05.trc
DataRate	CameraRate	NumFrames	NumMarkers	Units	OrigDataRate	OrigDataStartFrame	OrigNumFrames
250.000000	250.000000	11	24	m	250.000000	64	504
Frame#	Time	L.Toe.Tip			R.Toe.Tip			L.Ankle.Lat			R.Ankle.Lat			L.Ankle.Med			R.Ankle.Med			L.Heel			R.Heel			L.Knee.Lat			R.Knee.Lat			L.Knee.Med			R.Knee.Med			L.Thigh.Upper			R.Thigh.Upper			L.ASIS			R.ASIS			V.Sacral			L.Acromium			R.Acromium			C7			L.Elbow			R.Elbow			L.Wrist.Lat			R.Wrist.Lat
		X1	Y1	Z1	X2	Y2	Z2	X3	Y3	Z3	X4	Y4	Z4	X5	Y5	Z5	X6	Y6	Z6	X7	Y7	Z7	X8	Y8	Z8	X9	Y9	Z9	X10	Y10	Z10	X11	Y11	Z11	X12	Y12	Z12	X13	Y13	Z13	X14	Y14	Z14	X15	Y15	Z15	X16	Y16	Z16	X17	Y17	Z17	X18	Y18	Z18	X19	Y19	Z19	X20	Y20	Z20	X21	Y21	Z21	X22	Y22	Z22	X23	Y23	Z23	X24	Y24	Z24

64	0.252	-1.3893361	0.07805515	-0.082064393	-0.55757164	0.038425089	0.10924722	-1.4099174	0.23261346	-0.12198596	-0.70723783	0.054935533	0.14310466	-1.3846897	0.2182218	-0.028390313	-0.69388719	0.094768931	0.051037565	-1.4737798	0.27801106	-0.07489966	-0.77286556	0.033817569	0.093147234	-1.0369112	0.41794585	-0.13800684	-0.67974684	0.51062389	0.18358682	-1.0228715	0.40256009	-0.014984366	-0.69073664	0.49315944	0.054995104	-0.94653681	0.81656606	-0.14541754	-0.90429724	0.84661032	0.2246635	-0.84391389	0.89781863	-0.096847115	-0.83085441	0.92743625	0.14228544	-1.00313	0.97238247	0.025501359	-0.80806864	1.3649516	-0.12173543	-0.8579342	1.3679753	0.20453531	-0.89752003	1.4213438	0.035492049	-0.95151897	1.0273904	-0.21553626	-1.0219226	1.0436779	0.26895732	-0.77700278	0.82252858	-0.18498421	-0.91949875	0.79919147	0.33442542
65	0.256	-1.3790278	0.081435271	-0.082703071	-0.55756847	0.038396428	0.10906367	-1.3986794	0.2363184	-0.12112393	-0.70733116	0.054916414	0.14310787	-1.3733375	0.22139423	-0.027598751	-0.69374749	0.094708233	0.050930375	-1.4621736	0.28191895	-0.073610594	-0.77284676	0.033729967	0.093306895	-1.0241017	0.41738178	-0.13720868	-0.6771446	0.51030223	0.18525528	-1.0126811	0.40226316	-0.013704459	-0.68756611	0.49309229	0.054845454	-0.94028892	0.81727394	-0.14463716	-0.89837886	0.84787545	0.22529192	-0.83796294	0.89901426	-0.096193514	-0.82465544	0.92874893	0.14294917	-0.99673175	0.9737128	0.025978609	-0.80179188	1.3660874	-0.12142819	-0.8512936	1.3694836	0.20483955	-0.89112128	1.4227816	0.035844052	-0.94531736	1.0286732	-0.21521915	-1.0151026	1.044978	0.26963186	-0.77190433	0.82289967	-0.18478407	-0.91133156	0.80076485	0.33452352
66	0.26	-1.3680382	0.084712317	-0.083184226	-0.55756656	0.038409196	0.10887362	-1.3871405	0.23978733	-0.12016731	-0.70684576	0.054897657	0.14271258	-1.361873	0.22431219	-0.026674257	-0.69360071	0.094640168	0.05080541	-1.4503644	0.28547491	-0.072169204	-0.77282909	0.033672548	0.093289565	-1.0112117	0.41699883	-0.13643355	-0.67360698	0.50996357	0.18567448	-1.0028251	0.4021144	-0.012373022	-0.68453706	0.49296696	0.05472342	-0.93410591	0.81806804	-0.14392547	-0.89298784	0.8492704	0.22577543	-0.83205661	0.90028612	-0.095626388	-0.8184018	0.93015759	0.14351381	-0.99041926	0.97513225	0.026612863	-0.79559516	1.3672948	-0.12117125	-0.84466189	1.3710564	0.20511	-0.88480117	1.4243182	0.036200164	-0.93922713	1.030025	-0.2147966	-1.0083395	1.0463669	0.2703326	-0.76679399	0.82333385	-0.18463989	-0.90319605	0.80239849	0.33455536
67	0.264	-1.3564537	0.087822392	-0.083487675	-0.5575667	0.038447883	0.10868423	-1.3752974	0.24297901	-0.11911794	-0.70583171	0.054892488	0.14192997	-1.3502441	0.22694574	-0.025621874	-0.69343102	0.094564863	0.050664921	-1.438345	0.28869261	-0.070599483	-0.77279622	0.033604992	0.093135275	-0.99826638	0.41681299	-0.13563308	-0.66884633	0.50954129	0.1843295	-0.99233517	0.40207349	-0.011035273	-0.68161948	0.4927861	0.054617794	-0.92793565	0.8189341	-0.14336852	-0.88830988	0.85077916	0.22607333	-0.82617965	0.90163065	-0.095140299	-0.81206944	0.93166404	0.14400081	-0.98421424	0.97664244	0.027294344	-0.78947407	1.3685727	-0.12096656	-0.83803384	1.3726831	0.20534647	-0.8784906	1.4259389	0.03653642	-0.93323956	1.031418	-0.21431715	-1.0016272	1.0478372	0.2710644	-0.76161645	0.82384254	-0.18453261	-0.89509065	0.80409318	0.33452267
68	0.268	-1.3443605	0.090709747	-0.083613448	-0.55756889	0.038482643	0.10850506	-1.3631589	0.2458815	-0.11798981	-0.70475712	0.054921982	0.1411082	-1.3383342	0.22929515	-0.024474414	-0.69323488	0.094488762	0.050517559	-1.4261427	0.29156975	-0.068977327	-0.77273752	0.033502558	0.092901379	-0.98529201	0.41685082	-0.13477253	-0.66409876	0.50900119	0.18245987	-0.98082341	0.40214026	-0.0097242973	-0.67881278	0.49254837	0.054508001	-0.92177075	0.81985922	-0.14308596	-0.88408508	0.85240827	0.22623809	-0.82033639	0.90304472	-0.094712507	-0.80564764	0.93325849	0.14443239	-0.97812136	0.97823544	0.027917209	-0.78342265	1.3699209	-0.12081113	-0.83141358	1.3743594	0.20554678	-0.87209614	1.4275984	0.036819443	-0.92726412	1.0328357	-0.21379336	-0.99495756	1.0493866	0.27183423	-0.75642283	0.82444397	-0.18445561	-0.8869978	0.80586787	0.33443297
69	0.272	-1.3318501	0.093326804	-0.08354604	-0.55757506	0.038483816	0.10834553	-1.3507322	0.24849577	-0.11681532	-0.70421518	0.054981416	0.14071453	-1.326106	0.23139056	-0.023279565	-0.69304537	0.094418278	0.050374372	-1.413785	0.29409343	-0.067411416	-0.77267331	0.033386647	0.092650586	-0.97230745	0.41712327	-0.13384687	-0.66104649	0.50844871	0.18152552	-0.96844016	0.40233839	-0.0084568237	-0.67614294	0.49225949	0.054360293	-0.91557764	0.82084521	-0.14310065	-0.87958393	0.85417494	0.22643006	-0.8145406	0.90452918	-0.094315409	-0.79914532	0.93491738	0.14482622	-0.97211221	0.97989896	0.028464018	-0.7774367	1.3713396	-0.12068937	-0.8248218	1.3760892	0.20571339	-0.8656302	1.4292594	0.037041243	-0.92119556	1.0342971	-0.21321682	-0.98832425	1.0510166	0.27264465	-0.75131835	0.8251512	-0.1844133	-0.87891199	0.80773207	0.33429644
70	0.276	-1.3190311	0.095636234	-0.083252097	-0.55759061	0.03844794	0.10820961	-1.3380351	0.25081868	-0.11561892	-0.70432592	0.055049282	0.14084234	-1.3135486	0.23327557	-0.022083865	-0.69291343	0.094355528	0.050244753	-1.4012886	0.29624491	-0.065970836	-0.77265848	0.033317848	0.092461112	-0.9593378	0.41761713	-0.13286189	-0.65986449	0.50809191	0.18170093	-0.95553252	0.4026781	-0.0072343724	-0.67362439	0.49193626	0.054168559	-0.90924074	0.82192369	-0.14322462	-0.87417371	0.85607627	0.22679762	-0.80879605	0.9060928	-0.09393115	-0.79262152	0.93661167	0.14519338	-0.9661437	0.98163136	0.028980252	-0.77151927	1.3728276	-0.12058902	-0.81827661	1.3778781	0.20585314	-0.8592356	1.4309371	0.037239417	-0.91506567	1.0358544	-0.21253708	-0.98172748	1.0527267	0.27349047	-0.74634469	0.82596171	-0.18440609	-0.87083943	0.80968444	0.3341195
71	0.28	-1.3059954	0.097621618	-0.082701705	-0.55761891	0.038400629	0.10809625	-1.3251127	0.25283789	-0.11439434	-0.70471491	0.05513399	0.14117387	-1.3006189	0.23498134	-0.020918215	-0.69284872	0.094302285	0.050133709	-1.3886722	0.29801062	-0.064636432	-0.7727589	0.033364045	0.092413337	-0.94642039	0.41830633	-0.13183283	-0.65910808	0.508055	0.18219737	-0.94242623	0.4031619	-0.0060480319	-0.67123327	0.49160601	0.053999766	-0.90261726	0.82314423	-0.14319471	-0.86784242	0.85807282	0.22734991	-0.80309176	0.90774817	-0.093552361	-0.78623648	0.93832093	0.14553276	-0.96024856	0.98343574	0.029477181	-0.76567851	1.3743821	-0.1205157	-0.8117797	1.3797267	0.20597142	-0.85302361	1.4326741	0.037455487	-0.90907696	1.0375312	-0.21172181	-0.97517402	1.0545118	0.2743602	-0.74146397	0.82686111	-0.1844258	-0.86279423	0.81171887	0.33390395
72	0.284	-1.2927282	0.099309519	-0.081918447	-0.55765538	0.038372933	0.10800496	-1.312021	0.2545406	-0.113121	-0.70503303	0.055257188	0.14141382	-1.2872755	0.23653343	-0.019793144	-0.69281024	0.094263062	0.050042994	-1.3759538	0.29939572	-0.063338283	-0.77298307	0.033537406	0.09252249	-0.9335892	0.41917309	-0.13078481	-0.65746784	0.50827318	0.18239444	-0.92931562	0.40380521	-0.0048833324	-0.66894672	0.49130424	0.053972831	-0.89574535	0.82453514	-0.14294107	-0.8610594	0.86010415	0.2279761	-0.79741476	0.90950227	-0.093172174	-0.7802394	0.94003964	0.14583336	-0.95458383	0.98531548	0.029989401	-0.75991607	1.3759992	-0.12048096	-0.80533449	1.3816347	0.20607328	-0.84695732	1.4344843	0.037685048	-0.90341414	1.0392994	-0.21085338	-0.96866788	1.0563638	0.27523941	-0.73664093	0.82783737	-0.18446668	-0.8547963	0.81382499	0.3336541
73	0.288	-1.2790857	0.10076648	-0.080997113	-0.55769198	0.038380314	0.10793734	-1.2988009	0.25592588	-0.1117922	-0.70520525	0.055410411	0.14150247	-1.2736215	0.23795027	-0.018689892	-0.69276321	0.094240438	0.049973649	-1.3631442	0.30041989	-0.062020572	-0.77323503	0.033754906	0.092686668	-0.92083344	0.42021058	-0.12973556	-0.65476988	0.50856529	0.18225857	-0.91624375	0.40462584	-0.0037230834	-0.66681089	0.49106181	0.054196468	-0.88890234	0.82607698	-0.14261879	-0.85428913	0.86211659	0.22856114	-0.79175854	0.9113516	-0.092784691	-0.77476872	0.94177066	0.14609258	-0.94929877	0.98729051	0.030761154	-0.75421877	1.3776772	-0.12048006	-0.7989557	1.3836047	0.20616566	-0.8409325	1.4363487	0.037894447	-0.89804805	1.0411423	-0.21001954	-0.96220213	1.0582719	0.27611282	-0.73186973	0.82889006	-0.18452315	-0.84685899	0.81599212	0.33337795
74	0.292	-1.2649298	0.10205031	-0.080020588	-0.55772806	0.038421616	0.10789361	-1.2854701	0.25700908	-0.11042386	-0.70529242	0.055560329	0.14149815	-1.2600012	0.2392065	-0.017540283	-0.69270696	0.094234172	0.049925569	-1.3502496	0.3011013	-0.060668319	-0.77340108	0.033911665	0.092773946	-0.90808478	0.42139936	-0.12868239	-0.65155035	0.50875957	0.18201417	-0.90312686	0.40561175	-0.0025512075	-0.66489364	0.4908904	0.054686361	-0.88230516	0.82772597	-0.14237058	-0.84773637	0.86407914	0.22906119	-0.78611554	0.91328619	-0.092387861	-0.7696133	0.94351915	0.14633327	-0.94429112	0.98936737	0.032108334	-0.74856412	1.379418	-0.12049062	-0.79265055	1.3856368	0.20625319	-0.8348938	1.4382446	0.038063263	-0.89273286	1.0430587	-0.20917403	-0.9557646	1.0602261	0.27696852	-0.72713714	0.83002466	-0.18458179	-0.83898268	0.81821649	0.33308379
